<svg width="16" height="14" viewBox="0 0 16 14" fill="none" xmlns="http://www.w3.org/2000/svg">
<path id="Vector" d="M14.3553 3.74125C14.3655 3.88337 14.3655 4.02553 14.3655 4.16765C14.3655 8.50265 11.066 13.4976 5.03553 13.4976C3.17766 13.4976 1.45178 12.9595 0 12.0255C0.263969 12.056 0.51775 12.0661 0.791875 12.0661C2.32484 12.0661 3.73603 11.5484 4.86294 10.6651C3.42131 10.6347 2.21319 9.6905 1.79694 8.391C2 8.42144 2.20303 8.44175 2.41625 8.44175C2.71066 8.44175 3.00509 8.40112 3.27919 8.33009C1.77666 8.0255 0.649719 6.70572 0.649719 5.11181V5.07122C1.08625 5.31487 1.59391 5.46715 2.13194 5.48744C1.24869 4.89859 0.670031 3.89353 0.670031 2.75647C0.670031 2.14734 0.832438 1.58897 1.11672 1.10165C2.73094 3.0915 5.15734 4.39097 7.87813 4.53312C7.82738 4.28947 7.79691 4.03569 7.79691 3.78187C7.79691 1.97475 9.25884 0.502686 11.0761 0.502686C12.0203 0.502686 12.873 0.898623 13.472 1.53822C14.2131 1.39609 14.9238 1.12197 15.5533 0.746342C15.3096 1.50778 14.7918 2.14737 14.1116 2.55344C14.7715 2.4824 15.4111 2.29962 15.9999 2.04584C15.5533 2.69556 14.9949 3.27422 14.3553 3.74125Z" fill="#2F4644"/>
</svg>
